<?xml version="1.0" encoding="UTF-8" standalone="no"?>
<!DOCTYPE svg PUBLIC "-//W3C//DTD SVG 1.1//EN" "http://www.w3.org/Graphics/SVG/1.1/DTD/svg11.dtd">
<svg width="100%" height="100%" viewBox="0 0 365 195" version="1.1" xmlns="http://www.w3.org/2000/svg" xmlns:xlink="http://www.w3.org/1999/xlink" xml:space="preserve" xmlns:serif="http://www.serif.com/" style="fill-rule:evenodd;clip-rule:evenodd;stroke-linejoin:round;stroke-miterlimit:1.41421;">
    <g id="Layer-1" serif:id="Layer 1">
        <g transform="matrix(1,0,0,1,205.256,192.548)">
            <path d="M0,-61.587L-14.145,-61.587L-14.145,-10.991C-14.145,-8.589 -14.745,-6.427 -15.946,-4.505C-17.147,-2.582 -18.8,-1.141 -20.902,-0.18L-20.902,0L6.667,0L6.667,-0.18C4.625,-1.141 3.003,-2.582 1.802,-4.505C0.601,-6.427 0,-8.589 0,-10.991L0,-61.587Z" style="fill:rgb(2,134,118);fill-rule:nonzero;"/>
        </g>
        <g transform="matrix(1,0,0,1,189.095,30.8545)">
            <path d="M0,23.362L0,-0.906C0,-4.045 -0.951,-6.595 -2.853,-8.556C-4.754,-10.519 -7.787,-11.5 -11.953,-11.5C-15.937,-11.5 -20.827,-10.987 -26.622,-9.96L-34.137,0.091L-33.956,0.272C-26.229,-6.61 -20.766,-10.051 -17.566,-10.051C-15.937,-10.051 -14.654,-9.387 -13.718,-8.059C-12.783,-6.731 -12.315,-5.071 -12.315,-3.078C-12.315,-0.544 -13.13,1.555 -14.76,3.215C-16.39,4.875 -19.529,7.093 -24.177,9.87C-28.584,12.466 -31.662,14.699 -33.413,16.57C-35.164,18.442 -36.039,20.947 -36.039,24.086C-36.039,26.863 -35.058,29.353 -33.096,31.557C-31.134,33.76 -28.282,34.862 -24.539,34.862C-21.28,34.862 -17.326,32.9 -12.677,28.976L-12.677,34.409L4.799,34.409L4.799,34.228C2.687,33.141 1.358,31.783 0.814,30.153C0.271,28.523 0,26.259 0,23.362M-17.748,30.424C-19.257,30.424 -20.66,29.534 -21.958,27.754C-23.257,25.973 -23.906,23.784 -23.906,21.189L-23.906,20.193C-23.784,16.088 -22.849,12.919 -21.099,10.685C-20.072,9.417 -17.265,6.912 -12.677,3.17L-12.677,24.267C-12.677,26.138 -13.16,27.633 -14.126,28.75C-15.092,29.866 -16.299,30.424 -17.748,30.424" style="fill:rgb(2,134,118);fill-rule:nonzero;"/>
        </g>
        <g transform="matrix(1,0,0,1,139.039,66.5311)">
            <path d="M0,-63.173L0,-62.992C2.113,-62.026 3.773,-60.577 4.98,-58.645C6.187,-56.713 6.792,-54.54 6.792,-52.126L6.792,-23.815L-26.712,-63.173L-45.818,-63.173L-45.818,-62.992C-43.705,-62.026 -42.045,-60.577 -40.837,-58.645C-39.63,-56.713 -39.027,-54.54 -39.027,-52.126L-39.027,-12.315C-39.027,-9.9 -39.63,-7.727 -40.837,-5.796C-42.045,-3.863 -43.705,-2.415 -45.818,-1.449L-45.818,-1.268L-30.877,-1.268L-30.877,-1.449C-32.99,-2.415 -34.65,-3.863 -35.857,-5.796C-37.064,-7.727 -37.668,-9.9 -37.668,-12.315L-37.668,-53.756L7.878,0L8.15,0L8.15,-52.126C8.15,-54.54 8.753,-56.713 9.96,-58.645C11.167,-60.577 12.828,-62.026 14.94,-62.992L14.94,-63.173L0,-63.173Z" style="fill:rgb(2,134,118);fill-rule:nonzero;"/>
        </g>
        <g transform="matrix(1,0,0,1,269.564,65.2625)">
            <path d="M0,-45.274L0,-45.093C2.295,-44.308 3.668,-43.04 4.121,-41.29C4.573,-39.539 4.256,-37.426 3.17,-34.951L-3.712,-16.932L-10.956,-35.586C-12.043,-37.878 -12.405,-39.826 -12.043,-41.425C-11.681,-43.025 -10.292,-44.247 -7.877,-45.093L-7.877,-45.274L-29.519,-45.274L-29.519,-45.093C-28.13,-44.066 -26.139,-40.445 -23.542,-34.227L-9.326,0.001L-9.145,0.001L4.166,-34.136C6.58,-40.294 8.391,-43.946 9.599,-45.093L9.599,-45.274L0,-45.274ZM32.875,-9.326C29.313,-9.326 26.129,-10.73 23.321,-13.537C20.515,-16.343 19.021,-20.644 18.839,-26.439L45.822,-26.439C45.461,-32.476 43.619,-37.26 40.3,-40.792C36.979,-44.323 32.935,-46.089 28.166,-46.089C25.691,-46.089 23.246,-45.591 20.832,-44.595C18.417,-43.598 16.198,-42.165 14.177,-40.294C12.153,-38.422 10.509,-35.947 9.241,-32.868C7.974,-29.79 7.34,-26.349 7.34,-22.546C7.34,-15.061 9.332,-9.295 13.316,-5.251C17.301,-1.207 21.888,0.815 27.079,0.815C31.486,0.815 35.259,-0.769 38.398,-3.938C41.537,-7.107 43.771,-10.805 45.099,-15.03L44.917,-15.121C40.934,-11.257 36.919,-9.326 32.875,-9.326M26.265,-45.002C28.377,-45.002 30.144,-43.402 31.562,-40.203C32.979,-37.003 33.78,-32.838 33.961,-27.708L18.839,-27.708C18.839,-33.321 19.624,-37.607 21.193,-40.565C22.763,-43.523 24.453,-45.002 26.265,-45.002" style="fill:rgb(2,134,118);fill-rule:nonzero;"/>
        </g>
        <g transform="matrix(1,0,0,1,31.6022,131.75)">
            <path d="M0,-61.904L-31.602,-61.904L-31.602,-61.723C-29.489,-60.758 -27.829,-59.308 -26.622,-57.377C-25.415,-55.445 -24.811,-53.272 -24.811,-50.857L-24.811,-11.047C-24.811,-8.632 -25.415,-6.458 -26.622,-4.527C-27.829,-2.595 -29.489,-1.146 -31.602,-0.18L-31.602,0L-3.894,0L-3.894,-0.18C-5.946,-1.146 -7.576,-2.595 -8.783,-4.527C-9.991,-6.458 -10.595,-8.632 -10.595,-11.047L-10.595,-28.13C-8.36,-27.828 -5.916,-27.676 -3.26,-27.676C4.225,-27.676 9.855,-29.216 13.628,-32.295C17.401,-35.373 19.287,-39.508 19.287,-44.7C19.287,-50.072 17.385,-54.283 13.583,-57.332C9.779,-60.381 5.252,-61.904 0,-61.904M-6.701,-29.216C-8.029,-29.216 -9.327,-29.306 -10.595,-29.488L-10.595,-60.636L-9.96,-60.636C-5.795,-60.636 -2.339,-59.037 0.407,-55.838C3.154,-52.637 4.527,-48.624 4.527,-43.795C4.527,-38.784 3.517,-35.101 1.494,-32.747C-0.528,-30.393 -3.26,-29.216 -6.701,-29.216" style="fill:rgb(2,134,118);fill-rule:nonzero;"/>
        </g>
        <g transform="matrix(1,0,0,1,109.74,97.3428)">
            <path d="M0,23.361L0,-0.907C0,-4.045 -0.95,-6.596 -2.852,-8.557C-4.753,-10.519 -7.787,-11.5 -11.952,-11.5C-15.937,-11.5 -20.826,-10.988 -26.622,-9.96L-34.137,0.09L-33.956,0.271C-26.229,-6.611 -20.766,-10.051 -17.566,-10.051C-15.937,-10.051 -14.653,-9.387 -13.718,-8.06C-12.782,-6.732 -12.314,-5.071 -12.314,-3.079C-12.314,-0.544 -13.129,1.554 -14.759,3.215C-16.39,4.874 -19.528,7.092 -24.176,9.87C-28.583,12.465 -31.662,14.699 -33.413,16.57C-35.164,18.441 -36.039,20.947 -36.039,24.086C-36.039,26.862 -35.058,29.353 -33.096,31.556C-31.134,33.759 -28.281,34.861 -24.539,34.861C-21.279,34.861 -17.325,32.899 -12.677,28.975L-12.677,34.408L4.799,34.408L4.799,34.227C2.687,33.14 1.358,31.782 0.815,30.153C0.272,28.522 0,26.259 0,23.361M-17.747,30.423C-19.256,30.423 -20.66,29.534 -21.958,27.753C-23.256,25.972 -23.905,23.784 -23.905,21.188L-23.905,20.192C-23.784,16.088 -22.848,12.919 -21.098,10.684C-20.072,9.417 -17.265,6.912 -12.677,3.169L-12.677,24.266C-12.677,26.138 -13.16,27.632 -14.126,28.749C-15.092,29.866 -16.299,30.423 -17.747,30.423" style="fill:rgb(2,134,118);fill-rule:nonzero;"/>
        </g>
        <g transform="matrix(1,0,0,1,50.4387,69.8467)">
            <path d="M0,61.904L22.456,61.904L22.456,61.723C20.344,60.637 19.016,59.279 18.472,57.649C17.929,56.018 17.657,53.755 17.657,50.857L17.657,0L0,0L0,0.181C2.113,1.267 3.441,2.626 3.984,4.256C4.527,5.885 4.799,8.148 4.799,11.047L4.799,50.857C4.799,53.755 4.527,56.018 3.984,57.649C3.441,59.279 2.113,60.637 0,61.723L0,61.904Z" style="fill:rgb(2,134,118);fill-rule:nonzero;"/>
        </g>
        <g transform="matrix(1,0,0,1,187.076,71.6939)">
            <path d="M0,59.883L0,59.703C-4.625,57.781 -7.538,55.814 -8.739,53.802C-9.94,51.79 -10.541,48.802 -10.541,44.837L-10.541,16.097L-2.612,16.097L-2.612,14.836L-10.541,14.836L-10.541,-0.301L-10.721,-0.301C-12.884,3.904 -15.631,7.479 -18.965,10.421C-22.298,13.364 -25.466,14.896 -28.47,15.017L-28.47,16.097L-23.334,16.097L-23.334,43.576C-23.334,47 -23.199,49.478 -22.929,51.009C-22.659,52.54 -21.833,54.207 -20.451,56.009C-19.07,57.812 -16.728,58.983 -13.424,59.524C-10.12,60.064 -5.646,60.184 0,59.883" style="fill:rgb(2,134,118);fill-rule:nonzero;"/>
        </g>
        <g transform="matrix(1,0,0,1,252.73,180.897)">
            <path d="M0,-22.124C-0.604,-26.471 -2.098,-29.474 -4.483,-31.134C-6.867,-32.794 -9.961,-33.624 -13.765,-33.624L-34.771,-33.624L-34.771,-33.443C-32.658,-32.356 -31.33,-30.998 -30.787,-29.368C-30.244,-27.738 -29.972,-25.475 -29.972,-22.577L-29.972,0.604C-29.972,3.501 -30.244,5.765 -30.787,7.396C-31.33,9.024 -32.658,10.383 -34.771,11.47L-34.771,11.65L-12.314,11.65L-12.314,11.47C-14.428,10.383 -15.756,9.024 -16.299,7.396C-16.843,5.765 -17.114,3.501 -17.114,0.604L-17.114,-32.538L-16.934,-32.538C-14.82,-32.538 -13.221,-30.952 -12.134,-27.783C-11.048,-24.614 -10.625,-20.735 -10.866,-16.148L0,-22.124ZM-29.712,-33.774L-29.531,-33.774" style="fill:rgb(2,134,118);fill-rule:nonzero;"/>
        </g>
        <g transform="matrix(1,0,0,1,293.467,158.949)">
            <path d="M0,22.639L0,-11.59L-16.843,-11.59L-16.843,-11.407C-15.152,-10.442 -14.065,-9.114 -13.583,-7.423C-13.1,-5.733 -12.858,-3.439 -12.858,-0.542L-12.858,27.709C-14.971,29.098 -17.114,29.792 -19.287,29.792C-22.063,29.792 -23.453,28.041 -23.453,24.54L-23.453,-11.59L-41.11,-11.59L-41.11,-11.407C-38.997,-10.321 -37.669,-8.964 -37.126,-7.333C-36.582,-5.703 -36.311,-3.439 -36.311,-0.542L-36.311,26.713C-36.311,28.947 -35.677,30.758 -34.409,32.147C-33.142,33.535 -31.059,34.229 -28.161,34.229C-23.694,34.229 -18.593,32.508 -12.858,29.068L-12.858,33.686L4.799,33.686L4.799,33.505C2.746,32.418 1.434,31.06 0.86,29.43C0.286,27.8 0,25.536 0,22.639" style="fill:rgb(2,134,118);fill-rule:nonzero;"/>
        </g>
        <g transform="matrix(1,0,0,1,318.442,146.586)">
            <path d="M0,47.085C4.528,47.085 8.437,45.908 11.727,43.554C15.017,41.199 16.661,37.578 16.661,32.689C16.661,28.583 15.408,25.368 12.904,23.045C10.398,20.721 6.61,18.713 1.54,17.023C-0.875,16.178 -2.626,15.544 -3.712,15.121C-4.799,14.699 -6.066,14.126 -7.516,13.401C-8.964,12.677 -9.96,11.907 -10.503,11.092C-11.047,10.277 -11.318,9.356 -11.318,8.33C-11.318,6.278 -10.503,4.572 -8.874,3.214C-7.243,1.856 -5.282,1.177 -2.987,1.177C0.453,1.177 3.441,2.489 5.977,5.115C8.513,7.741 11.259,11.862 14.217,17.476L14.397,17.476L13.673,2.626C7.033,0.875 1.902,0 -1.72,0C-6.368,0 -10.353,1.191 -13.673,3.576C-16.992,5.961 -18.653,9.477 -18.653,14.126C-18.653,17.506 -17.687,20.283 -15.755,22.456C-13.823,24.629 -10.262,26.621 -5.07,28.432C-3.139,29.097 -1.811,29.564 -1.086,29.835C-0.361,30.107 0.74,30.53 2.219,31.104C3.698,31.677 4.739,32.16 5.343,32.552C5.946,32.944 6.641,33.458 7.425,34.092C8.21,34.726 8.738,35.374 9.01,36.038C9.281,36.702 9.418,37.427 9.418,38.211C9.418,40.867 8.588,42.814 6.928,44.052C5.267,45.289 3.261,45.908 0.906,45.908C-1.086,45.908 -3.018,45.41 -4.89,44.414C-6.761,43.418 -8.3,42.302 -9.507,41.064C-10.715,39.826 -11.982,38.121 -13.311,35.947C-14.639,33.774 -15.589,32.13 -16.162,31.013C-16.736,29.897 -17.476,28.312 -18.381,26.259L-18.472,26.259L-17.385,44.551C-9.114,46.24 -3.319,47.085 0,47.085" style="fill:rgb(2,134,118);fill-rule:nonzero;"/>
        </g>
        <g transform="matrix(1,0,0,1,364.167,132.489)">
            <path d="M0,60.185L0,60.004C-4.647,58.073 -7.576,56.095 -8.783,54.074C-9.99,52.051 -10.595,49.047 -10.595,45.064L-10.595,16.179L-2.626,16.179L-2.626,14.911L-10.595,14.911L-10.595,-0.302L-10.775,-0.302C-12.948,3.924 -15.71,7.516 -19.061,10.474C-22.411,13.432 -25.596,14.971 -28.614,15.091L-28.614,16.179L-23.452,16.179L-23.452,43.795C-23.452,47.237 -23.316,49.727 -23.045,51.266C-22.772,52.806 -21.943,54.481 -20.555,56.292C-19.166,58.103 -16.812,59.28 -13.491,59.824C-10.172,60.367 -5.675,60.487 0,60.185" style="fill:rgb(2,134,118);fill-rule:nonzero;"/>
        </g>
        <g transform="matrix(1,0,0,1,155.432,96.9798)">
            <path d="M0,23.724L0,-3.531C0,-5.764 -0.649,-7.576 -1.947,-8.964C-3.244,-10.352 -5.312,-11.047 -8.149,-11.047C-12.798,-11.047 -17.928,-9.297 -23.543,-5.795L-23.543,-10.504L-41.2,-10.504L-41.2,-10.323C-39.087,-9.235 -37.759,-7.878 -37.216,-6.248C-36.673,-4.618 -36.401,-2.354 -36.401,0.544L-36.401,23.724C-36.401,26.622 -36.673,28.885 -37.216,30.516C-37.759,32.145 -39.087,33.503 -41.2,34.59L-41.2,34.771L-19.559,34.771L-19.559,34.59C-21.249,33.624 -22.335,32.296 -22.818,30.606C-23.301,28.915 -23.543,26.622 -23.543,23.724L-23.543,-4.527C-21.37,-5.916 -19.166,-6.61 -16.933,-6.61C-14.216,-6.61 -12.857,-4.738 -12.857,-0.996L-12.857,23.724C-12.857,26.501 -13.129,28.765 -13.673,30.516C-14.216,32.266 -15.302,33.624 -16.933,34.59L-16.933,34.771L4.799,34.771L4.799,34.59C2.687,33.503 1.358,32.145 0.815,30.516C0.272,28.885 0,26.622 0,23.724" style="fill:rgb(2,134,118);fill-rule:nonzero;"/>
        </g>
        <g transform="matrix(1,0,0,1,220.208,5.0784)">
            <path d="M0,60.185L0,60.004C-4.647,58.072 -7.576,56.095 -8.783,54.073C-9.99,52.051 -10.595,49.047 -10.595,45.063L-10.595,16.178L-2.626,16.178L-2.626,14.91L-10.595,14.91L-10.595,-0.302L-10.775,-0.302C-12.948,3.924 -15.71,7.516 -19.061,10.474C-22.411,13.431 -25.596,14.971 -28.613,15.091L-28.613,16.178L-23.452,16.178L-23.452,43.795C-23.452,47.236 -23.316,49.727 -23.045,51.266C-22.773,52.805 -21.943,54.48 -20.555,56.291C-19.166,58.102 -16.812,59.28 -13.491,59.823C-10.172,60.366 -5.675,60.487 0,60.185" style="fill:rgb(2,134,118);fill-rule:nonzero;"/>
        </g>
        <g transform="matrix(1,0,0,1,230.484,51.4099)">
            <path d="M0,-36.311C1.991,-36.311 3.697,-36.99 5.115,-38.349C6.534,-39.706 7.243,-41.352 7.243,-43.283C7.243,-45.155 6.534,-46.769 5.115,-48.127C3.697,-49.485 1.991,-50.165 0,-50.165C-1.992,-50.165 -3.698,-49.485 -5.116,-48.127C-6.535,-46.769 -7.244,-45.155 -7.244,-43.283C-7.244,-41.352 -6.535,-39.706 -5.116,-38.349C-3.698,-36.99 -1.992,-36.311 0,-36.311M-10.866,13.854L11.59,13.854L11.59,13.673C9.477,12.585 8.149,11.228 7.605,9.598C7.062,7.968 6.791,5.704 6.791,2.806L6.791,-31.421L-10.866,-31.421L-10.866,-31.24C-8.753,-30.154 -7.425,-28.795 -6.882,-27.165C-6.339,-25.535 -6.067,-23.272 -6.067,-20.374L-6.067,2.806C-6.067,5.704 -6.339,7.968 -6.882,9.598C-7.425,11.228 -8.753,12.585 -10.866,13.673L-10.866,13.854Z" style="fill:rgb(2,134,118);fill-rule:nonzero;"/>
        </g>
        <g transform="matrix(1,0,0,1,209.182,146.027)">
            <path d="M0,-15.066L0,-14.892C3.288,-14.085 6.114,-12.484 8.479,-10.09C10.845,-7.697 12.637,-4.717 14.768,0L15.071,0L14.007,-15.066L0,-15.066Z" style="fill:rgb(2,134,118);fill-rule:nonzero;"/>
        </g>
    </g>
</svg>
